<svg xmlns="http://www.w3.org/2000/svg" xmlns:xlink="http://www.w3.org/1999/xlink" width="120" zoomAndPan="magnify" viewBox="0 0 90 89.999999" height="120" preserveAspectRatio="xMidYMid meet" version="1.0"><defs><clipPath id="1cee9ccbe8"><path d="M 0.140625 0.957031 L 22 0.957031 L 22 23 L 0.140625 23 Z M 0.140625 0.957031 " clip-rule="nonzero"/></clipPath><clipPath id="32c922baa5"><path d="M 25.082031 0.957031 L 47 0.957031 L 47 23 L 25.082031 23 Z M 25.082031 0.957031 " clip-rule="nonzero"/></clipPath><clipPath id="688505595a"><path d="M 50.023438 0.957031 L 71.878906 0.957031 L 71.878906 23 L 50.023438 23 Z M 50.023438 0.957031 " clip-rule="nonzero"/></clipPath><clipPath id="ebac2bacfd"><path d="M 0.351562 25.898438 L 22 25.898438 L 22 48 L 0.351562 48 Z M 0.351562 25.898438 " clip-rule="nonzero"/></clipPath><clipPath id="2b31fb68fd"><path d="M 25.292969 25.898438 L 47 25.898438 L 47 48 L 25.292969 48 Z M 25.292969 25.898438 " clip-rule="nonzero"/></clipPath><clipPath id="59b3f1d7f8"><path d="M 50.234375 25.898438 L 71.878906 25.898438 L 71.878906 48 L 50.234375 48 Z M 50.234375 25.898438 " clip-rule="nonzero"/></clipPath><clipPath id="1e3b9eb851"><path d="M 0.351562 51.417969 L 22 51.417969 L 22 73.121094 L 0.351562 73.121094 Z M 0.351562 51.417969 " clip-rule="nonzero"/></clipPath><clipPath id="9f7c8380c5"><path d="M 25.292969 51.417969 L 47 51.417969 L 47 73.121094 L 25.292969 73.121094 Z M 25.292969 51.417969 " clip-rule="nonzero"/></clipPath><clipPath id="b88576f045"><path d="M 50.234375 51.417969 L 71.878906 51.417969 L 71.878906 73.121094 L 50.234375 73.121094 Z M 50.234375 51.417969 " clip-rule="nonzero"/></clipPath><clipPath id="64154bf2a9"><path d="M 39.210938 25.898438 L 61 25.898438 L 61 48 L 39.210938 48 Z M 39.210938 25.898438 " clip-rule="nonzero"/></clipPath><clipPath id="8cb7774251"><path d="M 50.023438 15.085938 L 71.878906 15.085938 L 71.878906 37 L 50.023438 37 Z M 50.023438 15.085938 " clip-rule="nonzero"/></clipPath><clipPath id="d2c1de8e17"><path d="M 32.761719 16.429688 L 69.238281 16.429688 L 69.238281 45.167969 L 32.761719 45.167969 Z M 32.761719 16.429688 " clip-rule="nonzero"/></clipPath><clipPath id="d9993d8cbb"><rect x="0" width="72" y="0" height="74"/></clipPath></defs><g transform="matrix(1, 0, 0, 1, 9, 8)"><g clip-path="url(#d9993d8cbb)"><g clip-path="url(#1cee9ccbe8)"><path fill="#1f2937" d="M 21.765625 20.175781 C 21.765625 21.503906 20.6875 22.578125 19.363281 22.578125 L 2.542969 22.578125 C 1.21875 22.578125 0.140625 21.503906 0.140625 20.175781 L 0.140625 3.359375 C 0.140625 2.03125 1.21875 0.957031 2.542969 0.957031 L 19.363281 0.957031 C 20.6875 0.957031 21.765625 2.03125 21.765625 3.359375 Z M 21.765625 20.175781 " fill-opacity="1" fill-rule="nonzero"/></g><g clip-path="url(#32c922baa5)"><path fill="#1f2937" d="M 46.703125 20.175781 C 46.703125 21.503906 45.628906 22.578125 44.300781 22.578125 L 27.484375 22.578125 C 26.160156 22.578125 25.082031 21.503906 25.082031 20.175781 L 25.082031 3.359375 C 25.082031 2.03125 26.160156 0.957031 27.484375 0.957031 L 44.300781 0.957031 C 45.628906 0.957031 46.703125 2.03125 46.703125 3.359375 Z M 46.703125 20.175781 " fill-opacity="1" fill-rule="nonzero"/></g><g clip-path="url(#688505595a)"><path fill="#1f2937" d="M 71.644531 20.175781 C 71.644531 21.503906 70.570312 22.578125 69.242188 22.578125 L 52.425781 22.578125 C 51.097656 22.578125 50.023438 21.503906 50.023438 20.175781 L 50.023438 3.359375 C 50.023438 2.03125 51.097656 0.957031 52.425781 0.957031 L 69.242188 0.957031 C 70.570312 0.957031 71.644531 2.03125 71.644531 3.359375 Z M 71.644531 20.175781 " fill-opacity="1" fill-rule="nonzero"/></g><g clip-path="url(#ebac2bacfd)"><path fill="#1f2937" d="M 21.972656 45.117188 C 21.972656 46.441406 20.898438 47.519531 19.570312 47.519531 L 2.753906 47.519531 C 1.425781 47.519531 0.351562 46.441406 0.351562 45.117188 L 0.351562 28.300781 C 0.351562 26.972656 1.425781 25.898438 2.753906 25.898438 L 19.570312 25.898438 C 20.898438 25.898438 21.972656 26.972656 21.972656 28.300781 Z M 21.972656 45.117188 " fill-opacity="1" fill-rule="nonzero"/></g><g clip-path="url(#2b31fb68fd)"><path fill="#1f2937" d="M 46.914062 45.117188 C 46.914062 46.441406 45.839844 47.519531 44.511719 47.519531 L 27.695312 47.519531 C 26.367188 47.519531 25.292969 46.441406 25.292969 45.117188 L 25.292969 28.300781 C 25.292969 26.972656 26.367188 25.898438 27.695312 25.898438 L 44.511719 25.898438 C 45.839844 25.898438 46.914062 26.972656 46.914062 28.300781 Z M 46.914062 45.117188 " fill-opacity="1" fill-rule="nonzero"/></g><g clip-path="url(#59b3f1d7f8)"><path fill="#1f2937" d="M 71.855469 45.117188 C 71.855469 46.441406 70.777344 47.519531 69.453125 47.519531 L 52.636719 47.519531 C 51.308594 47.519531 50.234375 46.441406 50.234375 45.117188 L 50.234375 28.300781 C 50.234375 26.972656 51.308594 25.898438 52.636719 25.898438 L 69.453125 25.898438 C 70.777344 25.898438 71.855469 26.972656 71.855469 28.300781 Z M 71.855469 45.117188 " fill-opacity="1" fill-rule="nonzero"/></g><g clip-path="url(#1e3b9eb851)"><path fill="#1f2937" d="M 21.972656 70.636719 C 21.972656 71.964844 20.898438 73.039062 19.570312 73.039062 L 2.753906 73.039062 C 1.425781 73.039062 0.351562 71.964844 0.351562 70.636719 L 0.351562 53.820312 C 0.351562 52.496094 1.425781 51.417969 2.753906 51.417969 L 19.570312 51.417969 C 20.898438 51.417969 21.972656 52.496094 21.972656 53.820312 Z M 21.972656 70.636719 " fill-opacity="1" fill-rule="nonzero"/></g><g clip-path="url(#9f7c8380c5)"><path fill="#1f2937" d="M 46.914062 70.636719 C 46.914062 71.964844 45.839844 73.039062 44.511719 73.039062 L 27.695312 73.039062 C 26.367188 73.039062 25.292969 71.964844 25.292969 70.636719 L 25.292969 53.820312 C 25.292969 52.496094 26.367188 51.417969 27.695312 51.417969 L 44.511719 51.417969 C 45.839844 51.417969 46.914062 52.496094 46.914062 53.820312 Z M 46.914062 70.636719 " fill-opacity="1" fill-rule="nonzero"/></g><g clip-path="url(#b88576f045)"><path fill="#1f2937" d="M 71.855469 70.636719 C 71.855469 71.964844 70.777344 73.039062 69.453125 73.039062 L 52.636719 73.039062 C 51.308594 73.039062 50.234375 71.964844 50.234375 70.636719 L 50.234375 53.820312 C 50.234375 52.496094 51.308594 51.417969 52.636719 51.417969 L 69.453125 51.417969 C 70.777344 51.417969 71.855469 52.496094 71.855469 53.820312 Z M 71.855469 70.636719 " fill-opacity="1" fill-rule="nonzero"/></g><g clip-path="url(#64154bf2a9)"><path fill="#1f2937" d="M 60.832031 45.117188 C 60.832031 46.441406 59.757812 47.519531 58.429688 47.519531 L 41.613281 47.519531 C 40.285156 47.519531 39.210938 46.441406 39.210938 45.117188 L 39.210938 28.300781 C 39.210938 26.972656 40.285156 25.898438 41.613281 25.898438 L 58.429688 25.898438 C 59.757812 25.898438 60.832031 26.972656 60.832031 28.300781 Z M 60.832031 45.117188 " fill-opacity="1" fill-rule="nonzero"/></g><g clip-path="url(#8cb7774251)"><path fill="#1f2937" d="M 71.644531 34.304688 C 71.644531 35.628906 70.570312 36.707031 69.242188 36.707031 L 52.425781 36.707031 C 51.097656 36.707031 50.023438 35.628906 50.023438 34.304688 L 50.023438 17.488281 C 50.023438 16.160156 51.097656 15.085938 52.425781 15.085938 L 69.242188 15.085938 C 70.570312 15.085938 71.644531 16.160156 71.644531 17.488281 Z M 71.644531 34.304688 " fill-opacity="1" fill-rule="nonzero"/></g><g clip-path="url(#d2c1de8e17)"><path fill="#f9fafb" d="M 45.453125 45.460938 L 32.875 32.882812 L 37.886719 27.871094 L 45.453125 35.433594 L 64.457031 16.429688 L 69.46875 21.441406 Z M 45.453125 45.460938 " fill-opacity="1" fill-rule="nonzero"/></g></g></g></svg>