<svg xmlns="http://www.w3.org/2000/svg" xmlns:xlink="http://www.w3.org/1999/xlink" width="120" zoomAndPan="magnify" viewBox="0 0 90 89.999999" height="120" preserveAspectRatio="xMidYMid meet" version="1.0"><defs><clipPath id="fc89925015"><path d="M 1.003906 0.820312 L 23 0.820312 L 23 23 L 1.003906 23 Z M 1.003906 0.820312 " clip-rule="nonzero"/></clipPath><clipPath id="a2dd06358b"><path d="M 26.042969 0.820312 L 48 0.820312 L 48 23 L 26.042969 23 Z M 26.042969 0.820312 " clip-rule="nonzero"/></clipPath><clipPath id="6980dfc61b"><path d="M 51.078125 0.820312 L 73 0.820312 L 73 23 L 51.078125 23 Z M 51.078125 0.820312 " clip-rule="nonzero"/></clipPath><clipPath id="cb921dc554"><path d="M 1.214844 25.855469 L 23 25.855469 L 23 48 L 1.214844 48 Z M 1.214844 25.855469 " clip-rule="nonzero"/></clipPath><clipPath id="70fca4f4b5"><path d="M 26.25 25.855469 L 48 25.855469 L 48 48 L 26.25 48 Z M 26.25 25.855469 " clip-rule="nonzero"/></clipPath><clipPath id="87da9c59d1"><path d="M 51.289062 25.855469 L 73 25.855469 L 73 48 L 51.289062 48 Z M 51.289062 25.855469 " clip-rule="nonzero"/></clipPath><clipPath id="1bd7b48cc9"><path d="M 1.214844 51.472656 L 23 51.472656 L 23 73.359375 L 1.214844 73.359375 Z M 1.214844 51.472656 " clip-rule="nonzero"/></clipPath><clipPath id="54b32f0b07"><path d="M 26.25 51.472656 L 48 51.472656 L 48 73.359375 L 26.25 73.359375 Z M 26.25 51.472656 " clip-rule="nonzero"/></clipPath><clipPath id="88fa8378c2"><path d="M 51.289062 51.472656 L 73 51.472656 L 73 73.359375 L 51.289062 73.359375 Z M 51.289062 51.472656 " clip-rule="nonzero"/></clipPath><clipPath id="9aaf6f7a62"><path d="M 40.222656 25.855469 L 62 25.855469 L 62 48 L 40.222656 48 Z M 40.222656 25.855469 " clip-rule="nonzero"/></clipPath><clipPath id="1bf6d0dfe2"><path d="M 51.078125 15 L 73 15 L 73 37 L 51.078125 37 Z M 51.078125 15 " clip-rule="nonzero"/></clipPath><clipPath id="a04309c41e"><path d="M 33.75 16.351562 L 70.363281 16.351562 L 70.363281 45.199219 L 33.75 45.199219 Z M 33.75 16.351562 " clip-rule="nonzero"/></clipPath><clipPath id="befb5335d9"><rect x="0" width="74" y="0" height="74"/></clipPath></defs><g transform="matrix(1, 0, 0, 1, 8, 8)"><g clip-path="url(#befb5335d9)"><g clip-path="url(#fc89925015)"><path fill="#1f2937" d="M 22.710938 20.113281 C 22.710938 21.445312 21.628906 22.523438 20.296875 22.523438 L 3.417969 22.523438 C 2.085938 22.523438 1.003906 21.445312 1.003906 20.113281 L 1.003906 3.230469 C 1.003906 1.898438 2.085938 0.820312 3.417969 0.820312 L 20.296875 0.820312 C 21.628906 0.820312 22.710938 1.898438 22.710938 3.230469 Z M 22.710938 20.113281 " fill-opacity="1" fill-rule="nonzero"/></g><g clip-path="url(#a2dd06358b)"><path fill="#1f2937" d="M 47.746094 20.113281 C 47.746094 21.445312 46.664062 22.523438 45.332031 22.523438 L 28.453125 22.523438 C 27.121094 22.523438 26.042969 21.445312 26.042969 20.113281 L 26.042969 3.230469 C 26.042969 1.898438 27.121094 0.820312 28.453125 0.820312 L 45.332031 0.820312 C 46.664062 0.820312 47.746094 1.898438 47.746094 3.230469 Z M 47.746094 20.113281 " fill-opacity="1" fill-rule="nonzero"/></g><g clip-path="url(#6980dfc61b)"><path fill="#1f2937" d="M 72.78125 20.113281 C 72.78125 21.445312 71.699219 22.523438 70.371094 22.523438 L 53.488281 22.523438 C 52.15625 22.523438 51.078125 21.445312 51.078125 20.113281 L 51.078125 3.230469 C 51.078125 1.898438 52.15625 0.820312 53.488281 0.820312 L 70.371094 0.820312 C 71.699219 0.820312 72.78125 1.898438 72.78125 3.230469 Z M 72.78125 20.113281 " fill-opacity="1" fill-rule="nonzero"/></g><g clip-path="url(#cb921dc554)"><path fill="#1f2937" d="M 22.921875 45.148438 C 22.921875 46.480469 21.839844 47.558594 20.507812 47.558594 L 3.628906 47.558594 C 2.296875 47.558594 1.214844 46.480469 1.214844 45.148438 L 1.214844 28.265625 C 1.214844 26.933594 2.296875 25.855469 3.628906 25.855469 L 20.507812 25.855469 C 21.839844 25.855469 22.921875 26.933594 22.921875 28.265625 Z M 22.921875 45.148438 " fill-opacity="1" fill-rule="nonzero"/></g><g clip-path="url(#70fca4f4b5)"><path fill="#1f2937" d="M 47.957031 45.148438 C 47.957031 46.480469 46.875 47.558594 45.542969 47.558594 L 28.664062 47.558594 C 27.332031 47.558594 26.25 46.480469 26.25 45.148438 L 26.25 28.265625 C 26.25 26.933594 27.332031 25.855469 28.664062 25.855469 L 45.542969 25.855469 C 46.875 25.855469 47.957031 26.933594 47.957031 28.265625 Z M 47.957031 45.148438 " fill-opacity="1" fill-rule="nonzero"/></g><g clip-path="url(#87da9c59d1)"><path fill="#1f2937" d="M 72.992188 45.148438 C 72.992188 46.480469 71.910156 47.558594 70.578125 47.558594 L 53.699219 47.558594 C 52.367188 47.558594 51.289062 46.480469 51.289062 45.148438 L 51.289062 28.265625 C 51.289062 26.933594 52.367188 25.855469 53.699219 25.855469 L 70.578125 25.855469 C 71.910156 25.855469 72.992188 26.933594 72.992188 28.265625 Z M 72.992188 45.148438 " fill-opacity="1" fill-rule="nonzero"/></g><g clip-path="url(#1bd7b48cc9)"><path fill="#1f2937" d="M 22.921875 70.765625 C 22.921875 72.097656 21.839844 73.175781 20.507812 73.175781 L 3.628906 73.175781 C 2.296875 73.175781 1.214844 72.097656 1.214844 70.765625 L 1.214844 53.886719 C 1.214844 52.554688 2.296875 51.472656 3.628906 51.472656 L 20.507812 51.472656 C 21.839844 51.472656 22.921875 52.554688 22.921875 53.886719 Z M 22.921875 70.765625 " fill-opacity="1" fill-rule="nonzero"/></g><g clip-path="url(#54b32f0b07)"><path fill="#1f2937" d="M 47.957031 70.765625 C 47.957031 72.097656 46.875 73.175781 45.542969 73.175781 L 28.664062 73.175781 C 27.332031 73.175781 26.25 72.097656 26.25 70.765625 L 26.25 53.886719 C 26.25 52.554688 27.332031 51.472656 28.664062 51.472656 L 45.542969 51.472656 C 46.875 51.472656 47.957031 52.554688 47.957031 53.886719 Z M 47.957031 70.765625 " fill-opacity="1" fill-rule="nonzero"/></g><g clip-path="url(#88fa8378c2)"><path fill="#1f2937" d="M 72.992188 70.765625 C 72.992188 72.097656 71.910156 73.175781 70.578125 73.175781 L 53.699219 73.175781 C 52.367188 73.175781 51.289062 72.097656 51.289062 70.765625 L 51.289062 53.886719 C 51.289062 52.554688 52.367188 51.472656 53.699219 51.472656 L 70.578125 51.472656 C 71.910156 51.472656 72.992188 52.554688 72.992188 53.886719 Z M 72.992188 70.765625 " fill-opacity="1" fill-rule="nonzero"/></g><g clip-path="url(#9aaf6f7a62)"><path fill="#1f2937" d="M 61.925781 45.148438 C 61.925781 46.480469 60.847656 47.558594 59.515625 47.558594 L 42.632812 47.558594 C 41.304688 47.558594 40.222656 46.480469 40.222656 45.148438 L 40.222656 28.265625 C 40.222656 26.933594 41.304688 25.855469 42.632812 25.855469 L 59.515625 25.855469 C 60.847656 25.855469 61.925781 26.933594 61.925781 28.265625 Z M 61.925781 45.148438 " fill-opacity="1" fill-rule="nonzero"/></g><g clip-path="url(#1bf6d0dfe2)"><path fill="#1f2937" d="M 72.78125 34.292969 C 72.78125 35.625 71.699219 36.707031 70.371094 36.707031 L 53.488281 36.707031 C 52.15625 36.707031 51.078125 35.625 51.078125 34.292969 L 51.078125 17.414062 C 51.078125 16.082031 52.15625 15 53.488281 15 L 70.371094 15 C 71.699219 15 72.78125 16.082031 72.78125 17.414062 Z M 72.78125 34.292969 " fill-opacity="1" fill-rule="nonzero"/></g><g clip-path="url(#a04309c41e)"><path fill="#f59e0b" d="M 46.488281 45.492188 L 33.863281 32.867188 L 38.894531 27.835938 L 46.488281 35.429688 L 65.566406 16.351562 L 70.597656 21.382812 Z M 46.488281 45.492188 " fill-opacity="1" fill-rule="nonzero"/></g></g></g></svg>