<svg xmlns="http://www.w3.org/2000/svg" xmlns:xlink="http://www.w3.org/1999/xlink" width="480" zoomAndPan="magnify" viewBox="0 0 360 89.999999" height="120" preserveAspectRatio="xMidYMid meet" version="1.0"><defs><g/><clipPath id="ac6e408772"><path d="M 0.402344 0.191406 L 22 0.191406 L 22 22 L 0.402344 22 Z M 0.402344 0.191406 " clip-rule="nonzero"/></clipPath><clipPath id="72321b8bed"><path d="M 25.179688 0.191406 L 47 0.191406 L 47 22 L 25.179688 22 Z M 25.179688 0.191406 " clip-rule="nonzero"/></clipPath><clipPath id="e1f4f9085a"><path d="M 49.960938 0.191406 L 71.800781 0.191406 L 71.800781 22 L 49.960938 22 Z M 49.960938 0.191406 " clip-rule="nonzero"/></clipPath><clipPath id="4d28104bb5"><path d="M 0.613281 24.96875 L 22.574219 24.96875 L 22.574219 46.929688 L 0.613281 46.929688 Z M 0.613281 24.96875 " clip-rule="nonzero"/></clipPath><clipPath id="d9926e9d59"><path d="M 25.390625 24.96875 L 47 24.96875 L 47 46.929688 L 25.390625 46.929688 Z M 25.390625 24.96875 " clip-rule="nonzero"/></clipPath><clipPath id="bc8c39fbb4"><path d="M 50.167969 24.96875 L 71.800781 24.96875 L 71.800781 46.929688 L 50.167969 46.929688 Z M 50.167969 24.96875 " clip-rule="nonzero"/></clipPath><clipPath id="d6f4bd6209"><path d="M 0.613281 50.324219 L 22.574219 50.324219 L 22.574219 71.878906 L 0.613281 71.878906 Z M 0.613281 50.324219 " clip-rule="nonzero"/></clipPath><clipPath id="d07de80192"><path d="M 25.390625 50.324219 L 47 50.324219 L 47 71.878906 L 25.390625 71.878906 Z M 25.390625 50.324219 " clip-rule="nonzero"/></clipPath><clipPath id="61b3cda9f5"><path d="M 50.167969 50.324219 L 71.800781 50.324219 L 71.800781 71.878906 L 50.167969 71.878906 Z M 50.167969 50.324219 " clip-rule="nonzero"/></clipPath><clipPath id="5ccf383d4d"><path d="M 39.21875 24.96875 L 61 24.96875 L 61 46.929688 L 39.21875 46.929688 Z M 39.21875 24.96875 " clip-rule="nonzero"/></clipPath><clipPath id="b5f2e5d869"><path d="M 49.960938 14.226562 L 71.800781 14.226562 L 71.800781 36 L 49.960938 36 Z M 49.960938 14.226562 " clip-rule="nonzero"/></clipPath><clipPath id="61fc97aa07"><rect x="0" width="72" y="0" height="72"/></clipPath><clipPath id="a55f8838fc"><path d="M 91.8125 24.5625 L 128.5625 24.5625 L 128.5625 53.0625 L 91.8125 53.0625 Z M 91.8125 24.5625 " clip-rule="nonzero"/></clipPath></defs><g transform="matrix(1, 0, 0, 1, 59, 9)"><g clip-path="url(#61fc97aa07)"><g clip-path="url(#ac6e408772)"><path fill="#1f2937" d="M 21.882812 19.285156 C 21.882812 20.601562 20.816406 21.671875 19.496094 21.671875 L 2.789062 21.671875 C 1.472656 21.671875 0.402344 20.601562 0.402344 19.285156 L 0.402344 2.578125 C 0.402344 1.261719 1.472656 0.191406 2.789062 0.191406 L 19.496094 0.191406 C 20.816406 0.191406 21.882812 1.261719 21.882812 2.578125 Z M 21.882812 19.285156 " fill-opacity="1" fill-rule="nonzero"/></g><g clip-path="url(#72321b8bed)"><path fill="#1f2937" d="M 46.664062 19.285156 C 46.664062 20.601562 45.59375 21.671875 44.277344 21.671875 L 27.570312 21.671875 C 26.25 21.671875 25.179688 20.601562 25.179688 19.285156 L 25.179688 2.578125 C 25.179688 1.261719 26.25 0.191406 27.570312 0.191406 L 44.277344 0.191406 C 45.59375 0.191406 46.664062 1.261719 46.664062 2.578125 Z M 46.664062 19.285156 " fill-opacity="1" fill-rule="nonzero"/></g><g clip-path="url(#e1f4f9085a)"><path fill="#1f2937" d="M 71.441406 19.285156 C 71.441406 20.601562 70.371094 21.671875 69.054688 21.671875 L 52.347656 21.671875 C 51.027344 21.671875 49.960938 20.601562 49.960938 19.285156 L 49.960938 2.578125 C 49.960938 1.261719 51.027344 0.191406 52.347656 0.191406 L 69.054688 0.191406 C 70.371094 0.191406 71.441406 1.261719 71.441406 2.578125 Z M 71.441406 19.285156 " fill-opacity="1" fill-rule="nonzero"/></g><g clip-path="url(#4d28104bb5)"><path fill="#1f2937" d="M 22.09375 44.0625 C 22.09375 45.382812 21.023438 46.449219 19.707031 46.449219 L 3 46.449219 C 1.679688 46.449219 0.613281 45.382812 0.613281 44.0625 L 0.613281 27.355469 C 0.613281 26.039062 1.679688 24.96875 3 24.96875 L 19.707031 24.96875 C 21.023438 24.96875 22.09375 26.039062 22.09375 27.355469 Z M 22.09375 44.0625 " fill-opacity="1" fill-rule="nonzero"/></g><g clip-path="url(#d9926e9d59)"><path fill="#1f2937" d="M 46.871094 44.0625 C 46.871094 45.382812 45.800781 46.449219 44.484375 46.449219 L 27.777344 46.449219 C 26.457031 46.449219 25.390625 45.382812 25.390625 44.0625 L 25.390625 27.355469 C 25.390625 26.039062 26.457031 24.96875 27.777344 24.96875 L 44.484375 24.96875 C 45.800781 24.96875 46.871094 26.039062 46.871094 27.355469 Z M 46.871094 44.0625 " fill-opacity="1" fill-rule="nonzero"/></g><g clip-path="url(#bc8c39fbb4)"><path fill="#1f2937" d="M 71.648438 44.0625 C 71.648438 45.382812 70.582031 46.449219 69.261719 46.449219 L 52.554688 46.449219 C 51.238281 46.449219 50.167969 45.382812 50.167969 44.0625 L 50.167969 27.355469 C 50.167969 26.039062 51.238281 24.96875 52.554688 24.96875 L 69.261719 24.96875 C 70.582031 24.96875 71.648438 26.039062 71.648438 27.355469 Z M 71.648438 44.0625 " fill-opacity="1" fill-rule="nonzero"/></g><g clip-path="url(#d6f4bd6209)"><path fill="#1f2937" d="M 22.09375 69.417969 C 22.09375 70.738281 21.023438 71.804688 19.707031 71.804688 L 3 71.804688 C 1.679688 71.804688 0.613281 70.738281 0.613281 69.417969 L 0.613281 52.710938 C 0.613281 51.394531 1.679688 50.324219 3 50.324219 L 19.707031 50.324219 C 21.023438 50.324219 22.09375 51.394531 22.09375 52.710938 Z M 22.09375 69.417969 " fill-opacity="1" fill-rule="nonzero"/></g><g clip-path="url(#d07de80192)"><path fill="#1f2937" d="M 46.871094 69.417969 C 46.871094 70.738281 45.800781 71.804688 44.484375 71.804688 L 27.777344 71.804688 C 26.457031 71.804688 25.390625 70.738281 25.390625 69.417969 L 25.390625 52.710938 C 25.390625 51.394531 26.457031 50.324219 27.777344 50.324219 L 44.484375 50.324219 C 45.800781 50.324219 46.871094 51.394531 46.871094 52.710938 Z M 46.871094 69.417969 " fill-opacity="1" fill-rule="nonzero"/></g><g clip-path="url(#61b3cda9f5)"><path fill="#1f2937" d="M 71.648438 69.417969 C 71.648438 70.738281 70.582031 71.804688 69.261719 71.804688 L 52.554688 71.804688 C 51.238281 71.804688 50.167969 70.738281 50.167969 69.417969 L 50.167969 52.710938 C 50.167969 51.394531 51.238281 50.324219 52.554688 50.324219 L 69.261719 50.324219 C 70.582031 50.324219 71.648438 51.394531 71.648438 52.710938 Z M 71.648438 69.417969 " fill-opacity="1" fill-rule="nonzero"/></g><g clip-path="url(#5ccf383d4d)"><path fill="#1f2937" d="M 60.699219 44.0625 C 60.699219 45.382812 59.628906 46.449219 58.3125 46.449219 L 41.605469 46.449219 C 40.285156 46.449219 39.21875 45.382812 39.21875 44.0625 L 39.21875 27.355469 C 39.21875 26.039062 40.285156 24.96875 41.605469 24.96875 L 58.3125 24.96875 C 59.628906 24.96875 60.699219 26.039062 60.699219 27.355469 Z M 60.699219 44.0625 " fill-opacity="1" fill-rule="nonzero"/></g><g clip-path="url(#b5f2e5d869)"><path fill="#1f2937" d="M 71.441406 33.320312 C 71.441406 34.640625 70.371094 35.707031 69.054688 35.707031 L 52.347656 35.707031 C 51.027344 35.707031 49.960938 34.640625 49.960938 33.320312 L 49.960938 16.613281 C 49.960938 15.296875 51.027344 14.226562 52.347656 14.226562 L 69.054688 14.226562 C 70.371094 14.226562 71.441406 15.296875 71.441406 16.613281 Z M 71.441406 33.320312 " fill-opacity="1" fill-rule="nonzero"/></g></g></g><g clip-path="url(#a55f8838fc)"><path fill="#f59e0b" d="M 104.421875 53.402344 L 91.929688 40.910156 L 96.90625 35.929688 L 104.421875 43.445312 L 123.304688 24.5625 L 128.28125 29.542969 Z M 104.421875 53.402344 " fill-opacity="1" fill-rule="nonzero"/></g><g fill="#1f2937" fill-opacity="1"><g transform="translate(140.225488, 66.959215)"><g><path d="M 10.828125 0 L 0.53125 -31.40625 L 9.265625 -31.40625 L 13.15625 -18.71875 L 16.09375 -7.359375 L 16.5625 -7.359375 L 19.5 -18.71875 L 23.265625 -31.40625 L 31.640625 -31.40625 L 21.359375 0 Z M 10.828125 0 "/></g></g></g><g fill="#1f2937" fill-opacity="1"><g transform="translate(172.404636, 66.959215)"><g><path d="M 17.21875 0.71875 C 14.832031 0.71875 12.703125 0.332031 10.828125 -0.4375 C 8.953125 -1.21875 7.363281 -2.316406 6.0625 -3.734375 C 4.769531 -5.148438 3.796875 -6.875 3.140625 -8.90625 C 2.484375 -10.945312 2.15625 -13.222656 2.15625 -15.734375 C 2.15625 -18.203125 2.472656 -20.441406 3.109375 -22.453125 C 3.742188 -24.472656 4.6875 -26.195312 5.9375 -27.625 C 7.195312 -29.0625 8.742188 -30.171875 10.578125 -30.953125 C 12.421875 -31.734375 14.515625 -32.125 16.859375 -32.125 C 19.453125 -32.125 21.675781 -31.679688 23.53125 -30.796875 C 25.382812 -29.921875 26.898438 -28.742188 28.078125 -27.265625 C 29.253906 -25.796875 30.113281 -24.09375 30.65625 -22.15625 C 31.195312 -20.226562 31.46875 -18.207031 31.46875 -16.09375 L 31.46875 -13.453125 L 11.296875 -13.453125 L 11.296875 -12.984375 C 11.296875 -10.910156 11.851562 -9.265625 12.96875 -8.046875 C 14.09375 -6.828125 15.851562 -6.21875 18.25 -6.21875 C 20.082031 -6.21875 21.578125 -6.585938 22.734375 -7.328125 C 23.890625 -8.066406 24.960938 -8.953125 25.953125 -9.984375 L 30.390625 -4.484375 C 28.992188 -2.847656 27.164062 -1.570312 24.90625 -0.65625 C 22.65625 0.257812 20.09375 0.71875 17.21875 0.71875 Z M 17.046875 -25.59375 C 15.253906 -25.59375 13.847656 -25.003906 12.828125 -23.828125 C 11.804688 -22.660156 11.296875 -21.097656 11.296875 -19.140625 L 11.296875 -18.65625 L 22.3125 -18.65625 L 22.3125 -19.203125 C 22.3125 -21.117188 21.878906 -22.660156 21.015625 -23.828125 C 20.160156 -25.003906 18.835938 -25.59375 17.046875 -25.59375 Z M 17.046875 -25.59375 "/></g></g></g><g fill="#1f2937" fill-opacity="1"><g transform="translate(206.019285, 66.959215)"><g><path d="M 4.125 0 L 4.125 -31.40625 L 12.984375 -31.40625 L 12.984375 -24.578125 L 13.28125 -24.578125 C 13.4375 -25.460938 13.710938 -26.3125 14.109375 -27.125 C 14.515625 -27.9375 15.046875 -28.660156 15.703125 -29.296875 C 16.359375 -29.941406 17.144531 -30.453125 18.0625 -30.828125 C 18.976562 -31.210938 20.054688 -31.40625 21.296875 -31.40625 L 22.84375 -31.40625 L 22.84375 -23.140625 L 20.640625 -23.140625 C 18.046875 -23.140625 16.117188 -22.800781 14.859375 -22.125 C 13.609375 -21.445312 12.984375 -20.191406 12.984375 -18.359375 L 12.984375 0 Z M 4.125 0 "/></g></g></g><g fill="#1f2937" fill-opacity="1"><g transform="translate(230.183552, 66.959215)"><g><path d="M 4.125 -44.265625 L 12.984375 -44.265625 L 12.984375 -26.140625 L 13.28125 -26.140625 C 13.71875 -27.890625 14.722656 -29.320312 16.296875 -30.4375 C 17.867188 -31.5625 19.675781 -32.125 21.71875 -32.125 C 25.695312 -32.125 28.703125 -30.726562 30.734375 -27.9375 C 32.773438 -25.144531 33.796875 -21.078125 33.796875 -15.734375 C 33.796875 -10.390625 32.773438 -6.3125 30.734375 -3.5 C 28.703125 -0.6875 25.695312 0.71875 21.71875 0.71875 C 20.675781 0.71875 19.695312 0.566406 18.78125 0.265625 C 17.863281 -0.0234375 17.035156 -0.441406 16.296875 -0.984375 C 15.554688 -1.523438 14.925781 -2.160156 14.40625 -2.890625 C 13.894531 -3.628906 13.519531 -4.421875 13.28125 -5.265625 L 12.984375 -5.265625 L 12.984375 0 L 4.125 0 Z M 18.78125 -6.453125 C 20.457031 -6.453125 21.84375 -7.039062 22.9375 -8.21875 C 24.03125 -9.394531 24.578125 -10.984375 24.578125 -12.984375 L 24.578125 -18.421875 C 24.578125 -20.410156 24.03125 -21.992188 22.9375 -23.171875 C 21.84375 -24.347656 20.457031 -24.9375 18.78125 -24.9375 C 17.101562 -24.9375 15.71875 -24.523438 14.625 -23.703125 C 13.53125 -22.890625 12.984375 -21.769531 12.984375 -20.34375 L 12.984375 -11.0625 C 12.984375 -9.625 13.53125 -8.492188 14.625 -7.671875 C 15.71875 -6.859375 17.101562 -6.453125 18.78125 -6.453125 Z M 18.78125 -6.453125 "/></g></g></g><g fill="#1f2937" fill-opacity="1"><g transform="translate(266.549578, 66.959215)"><g><path d="M 27.328125 0 C 25.734375 0 24.40625 -0.492188 23.34375 -1.484375 C 22.289062 -2.484375 21.628906 -3.820312 21.359375 -5.5 L 21 -5.5 C 20.519531 -3.46875 19.460938 -1.921875 17.828125 -0.859375 C 16.191406 0.191406 14.175781 0.71875 11.78125 0.71875 C 8.632812 0.71875 6.222656 -0.117188 4.546875 -1.796875 C 2.867188 -3.472656 2.03125 -5.6875 2.03125 -8.4375 C 2.03125 -11.738281 3.234375 -14.195312 5.640625 -15.8125 C 8.054688 -17.4375 11.335938 -18.25 15.484375 -18.25 L 20.453125 -18.25 L 20.453125 -20.21875 C 20.453125 -21.726562 20.050781 -22.929688 19.25 -23.828125 C 18.457031 -24.734375 17.125 -25.1875 15.25 -25.1875 C 13.5 -25.1875 12.101562 -24.804688 11.0625 -24.046875 C 10.03125 -23.285156 9.175781 -22.425781 8.5 -21.46875 L 3.234375 -26.140625 C 4.503906 -28.015625 6.109375 -29.476562 8.046875 -30.53125 C 9.984375 -31.59375 12.601562 -32.125 15.90625 -32.125 C 20.375 -32.125 23.722656 -31.144531 25.953125 -29.1875 C 28.191406 -27.226562 29.3125 -24.378906 29.3125 -20.640625 L 29.3125 -6.875 L 32.234375 -6.875 L 32.234375 0 Z M 15.078125 -5.4375 C 16.546875 -5.4375 17.804688 -5.753906 18.859375 -6.390625 C 19.921875 -7.035156 20.453125 -8.078125 20.453125 -9.515625 L 20.453125 -13.21875 L 16.15625 -13.21875 C 12.6875 -13.21875 10.953125 -12.039062 10.953125 -9.6875 L 10.953125 -8.796875 C 10.953125 -7.640625 11.304688 -6.789062 12.015625 -6.25 C 12.734375 -5.707031 13.753906 -5.4375 15.078125 -5.4375 Z M 15.078125 -5.4375 "/></g></g></g></svg>