<svg xmlns="http://www.w3.org/2000/svg" xmlns:xlink="http://www.w3.org/1999/xlink" width="120" zoomAndPan="magnify" viewBox="0 0 90 89.999999" height="120" preserveAspectRatio="xMidYMid meet" version="1.0"><defs><clipPath id="506fa11512"><path d="M 0.183594 0.996094 L 22 0.996094 L 22 23 L 0.183594 23 Z M 0.183594 0.996094 " clip-rule="nonzero"/></clipPath><clipPath id="328f9d7b7c"><path d="M 25.09375 0.996094 L 47 0.996094 L 47 23 L 25.09375 23 Z M 25.09375 0.996094 " clip-rule="nonzero"/></clipPath><clipPath id="59d67b8f81"><path d="M 50.007812 0.996094 L 71.878906 0.996094 L 71.878906 23 L 50.007812 23 Z M 50.007812 0.996094 " clip-rule="nonzero"/></clipPath><clipPath id="296e63cc48"><path d="M 0.394531 25.910156 L 22 25.910156 L 22 47.988281 L 0.394531 47.988281 Z M 0.394531 25.910156 " clip-rule="nonzero"/></clipPath><clipPath id="8a141f9b5e"><path d="M 25.304688 25.910156 L 47 25.910156 L 47 47.988281 L 25.304688 47.988281 Z M 25.304688 25.910156 " clip-rule="nonzero"/></clipPath><clipPath id="fa74486285"><path d="M 50.214844 25.910156 L 71.878906 25.910156 L 71.878906 47.988281 L 50.214844 47.988281 Z M 50.214844 25.910156 " clip-rule="nonzero"/></clipPath><clipPath id="93210be476"><path d="M 0.394531 51.402344 L 22 51.402344 L 22 73 L 0.394531 73 Z M 0.394531 51.402344 " clip-rule="nonzero"/></clipPath><clipPath id="a726445b64"><path d="M 25.304688 51.402344 L 47 51.402344 L 47 73 L 25.304688 73 Z M 25.304688 51.402344 " clip-rule="nonzero"/></clipPath><clipPath id="32553500ec"><path d="M 50.214844 51.402344 L 71.878906 51.402344 L 71.878906 73 L 50.214844 73 Z M 50.214844 51.402344 " clip-rule="nonzero"/></clipPath><clipPath id="de42808eb8"><path d="M 39.207031 25.910156 L 61 25.910156 L 61 47.988281 L 39.207031 47.988281 Z M 39.207031 25.910156 " clip-rule="nonzero"/></clipPath><clipPath id="c551273aaf"><path d="M 50.007812 15.109375 L 71.878906 15.109375 L 71.878906 37 L 50.007812 37 Z M 50.007812 15.109375 " clip-rule="nonzero"/></clipPath><clipPath id="ee7fdb17e4"><path d="M 32.765625 16.453125 L 69.199219 16.453125 L 69.199219 45.15625 L 32.765625 45.15625 Z M 32.765625 16.453125 " clip-rule="nonzero"/></clipPath><clipPath id="a21db09eab"><rect x="0" width="72" y="0" height="74"/></clipPath></defs><g transform="matrix(1, 0, 0, 1, 9, 8)"><g clip-path="url(#a21db09eab)"><g clip-path="url(#506fa11512)"><path fill="#f9fafb" d="M 21.78125 20.195312 C 21.78125 21.519531 20.707031 22.59375 19.378906 22.59375 L 2.582031 22.59375 C 1.257812 22.59375 0.183594 21.519531 0.183594 20.195312 L 0.183594 3.398438 C 0.183594 2.074219 1.257812 0.996094 2.582031 0.996094 L 19.378906 0.996094 C 20.707031 0.996094 21.78125 2.074219 21.78125 3.398438 Z M 21.78125 20.195312 " fill-opacity="1" fill-rule="nonzero"/></g><g clip-path="url(#328f9d7b7c)"><path fill="#f9fafb" d="M 46.691406 20.195312 C 46.691406 21.519531 45.617188 22.59375 44.292969 22.59375 L 27.496094 22.59375 C 26.167969 22.59375 25.09375 21.519531 25.09375 20.195312 L 25.09375 3.398438 C 25.09375 2.074219 26.167969 0.996094 27.496094 0.996094 L 44.292969 0.996094 C 45.617188 0.996094 46.691406 2.074219 46.691406 3.398438 Z M 46.691406 20.195312 " fill-opacity="1" fill-rule="nonzero"/></g><g clip-path="url(#59d67b8f81)"><path fill="#f9fafb" d="M 71.605469 20.195312 C 71.605469 21.519531 70.53125 22.59375 69.203125 22.59375 L 52.40625 22.59375 C 51.082031 22.59375 50.007812 21.519531 50.007812 20.195312 L 50.007812 3.398438 C 50.007812 2.074219 51.082031 0.996094 52.40625 0.996094 L 69.203125 0.996094 C 70.53125 0.996094 71.605469 2.074219 71.605469 3.398438 Z M 71.605469 20.195312 " fill-opacity="1" fill-rule="nonzero"/></g><g clip-path="url(#296e63cc48)"><path fill="#f9fafb" d="M 21.988281 45.105469 C 21.988281 46.433594 20.914062 47.507812 19.589844 47.507812 L 2.792969 47.507812 C 1.46875 47.507812 0.394531 46.433594 0.394531 45.105469 L 0.394531 28.308594 C 0.394531 26.984375 1.46875 25.910156 2.792969 25.910156 L 19.589844 25.910156 C 20.914062 25.910156 21.988281 26.984375 21.988281 28.308594 Z M 21.988281 45.105469 " fill-opacity="1" fill-rule="nonzero"/></g><g clip-path="url(#8a141f9b5e)"><path fill="#f9fafb" d="M 46.902344 45.105469 C 46.902344 46.433594 45.828125 47.507812 44.503906 47.507812 L 27.703125 47.507812 C 26.378906 47.507812 25.304688 46.433594 25.304688 45.105469 L 25.304688 28.308594 C 25.304688 26.984375 26.378906 25.910156 27.703125 25.910156 L 44.503906 25.910156 C 45.828125 25.910156 46.902344 26.984375 46.902344 28.308594 Z M 46.902344 45.105469 " fill-opacity="1" fill-rule="nonzero"/></g><g clip-path="url(#fa74486285)"><path fill="#f9fafb" d="M 71.8125 45.105469 C 71.8125 46.433594 70.738281 47.507812 69.414062 47.507812 L 52.617188 47.507812 C 51.292969 47.507812 50.214844 46.433594 50.214844 45.105469 L 50.214844 28.308594 C 50.214844 26.984375 51.292969 25.910156 52.617188 25.910156 L 69.414062 25.910156 C 70.738281 25.910156 71.8125 26.984375 71.8125 28.308594 Z M 71.8125 45.105469 " fill-opacity="1" fill-rule="nonzero"/></g><g clip-path="url(#93210be476)"><path fill="#f9fafb" d="M 21.988281 70.597656 C 21.988281 71.925781 20.914062 73 19.589844 73 L 2.792969 73 C 1.46875 73 0.394531 71.925781 0.394531 70.597656 L 0.394531 53.800781 C 0.394531 52.476562 1.46875 51.402344 2.792969 51.402344 L 19.589844 51.402344 C 20.914062 51.402344 21.988281 52.476562 21.988281 53.800781 Z M 21.988281 70.597656 " fill-opacity="1" fill-rule="nonzero"/></g><g clip-path="url(#a726445b64)"><path fill="#f9fafb" d="M 46.902344 70.597656 C 46.902344 71.925781 45.828125 73 44.503906 73 L 27.703125 73 C 26.378906 73 25.304688 71.925781 25.304688 70.597656 L 25.304688 53.800781 C 25.304688 52.476562 26.378906 51.402344 27.703125 51.402344 L 44.503906 51.402344 C 45.828125 51.402344 46.902344 52.476562 46.902344 53.800781 Z M 46.902344 70.597656 " fill-opacity="1" fill-rule="nonzero"/></g><g clip-path="url(#32553500ec)"><path fill="#f9fafb" d="M 71.8125 70.597656 C 71.8125 71.925781 70.738281 73 69.414062 73 L 52.617188 73 C 51.292969 73 50.214844 71.925781 50.214844 70.597656 L 50.214844 53.800781 C 50.214844 52.476562 51.292969 51.402344 52.617188 51.402344 L 69.414062 51.402344 C 70.738281 51.402344 71.8125 52.476562 71.8125 53.800781 Z M 71.8125 70.597656 " fill-opacity="1" fill-rule="nonzero"/></g><g clip-path="url(#de42808eb8)"><path fill="#f9fafb" d="M 60.804688 45.105469 C 60.804688 46.433594 59.730469 47.507812 58.40625 47.507812 L 41.605469 47.507812 C 40.28125 47.507812 39.207031 46.433594 39.207031 45.105469 L 39.207031 28.308594 C 39.207031 26.984375 40.28125 25.910156 41.605469 25.910156 L 58.40625 25.910156 C 59.730469 25.910156 60.804688 26.984375 60.804688 28.308594 Z M 60.804688 45.105469 " fill-opacity="1" fill-rule="nonzero"/></g><g clip-path="url(#c551273aaf)"><path fill="#f9fafb" d="M 71.605469 34.308594 C 71.605469 35.632812 70.53125 36.707031 69.203125 36.707031 L 52.40625 36.707031 C 51.082031 36.707031 50.007812 35.632812 50.007812 34.308594 L 50.007812 17.507812 C 50.007812 16.183594 51.082031 15.109375 52.40625 15.109375 L 69.203125 15.109375 C 70.53125 15.109375 71.605469 16.183594 71.605469 17.507812 Z M 71.605469 34.308594 " fill-opacity="1" fill-rule="nonzero"/></g><g clip-path="url(#ee7fdb17e4)"><path fill="#f59e0b" d="M 45.441406 45.449219 L 32.878906 32.886719 L 37.886719 27.878906 L 45.441406 35.4375 L 64.425781 16.453125 L 69.429688 21.457031 Z M 45.441406 45.449219 " fill-opacity="1" fill-rule="nonzero"/></g></g></g></svg>